<?xml version="1.0" standalone="no"?>
<!DOCTYPE svg PUBLIC "-//W3C//DTD SVG 20010904//EN"
 "http://www.w3.org/TR/2001/REC-SVG-20010904/DTD/svg10.dtd">
<svg version="1.0" xmlns="http://www.w3.org/2000/svg"
 width="225.000000pt" height="225.000000pt" viewBox="0 0 225.000000 225.000000"
 preserveAspectRatio="xMidYMid meet">
<metadata>
Created by potrace 1.16, written by Peter Selinger 2001-2019
</metadata>
<g transform="translate(0.000000,225.000000) scale(0.100000,-0.100000)"
fill="#000000" stroke="none">
<path d="M970 2239 c-115 -12 -284 -70 -410 -140 -119 -67 -271 -205 -351
-319 -268 -384 -277 -898 -22 -1278 141 -210 358 -372 604 -450 131 -42 247
-56 399 -48 283 14 518 116 714 311 156 155 258 328 312 530 24 89 27 119 28
270 0 193 -13 270 -71 419 -62 157 -136 267 -264 393 -99 97 -166 146 -280
203 -201 102 -409 136 -659 109z m410 -138 c273 -71 524 -275 648 -526 78
-158 107 -302 99 -496 -10 -265 -102 -475 -290 -663 -136 -135 -281 -220 -457
-267 -72 -20 -110 -23 -255 -24 -202 0 -280 17 -440 95 -263 127 -441 341
-532 637 -25 82 -27 100 -27 273 0 173 2 191 28 275 49 162 153 333 267 440
152 143 341 241 530 274 95 17 333 7 429 -18z"/>
<path d="M1566 1898 c25 -51 58 -106 73 -122 17 -19 22 -30 14 -33 -9 -3 -10
-10 -3 -22 6 -13 4 -22 -11 -35 -18 -15 -18 -19 -6 -37 15 -21 219 -169 226
-163 4 4 -14 27 -87 115 -30 35 -59 71 -65 79 -37 48 -38 52 -9 26 17 -16 34
-28 36 -25 3 2 -16 31 -40 64 l-45 60 26 3 c14 2 33 -2 40 -8 8 -7 81 -95 162
-197 81 -101 149 -179 151 -173 6 16 -60 149 -106 217 -52 77 -164 196 -227
243 -51 38 -156 100 -168 100 -4 0 14 -42 39 -92z"/>
<path d="M815 1629 c-140 -32 -319 -115 -329 -152 -3 -12 -6 -38 -6 -58 0 -19
-12 -73 -26 -120 -15 -50 -30 -134 -37 -209 l-12 -124 -105 -21 c-101 -20
-105 -22 -102 -45 7 -45 68 -197 103 -255 29 -48 36 -54 44 -39 6 9 20 29 33
44 29 36 28 46 -3 26 -36 -23 -42 -20 -15 9 l23 25 -21 0 c-12 0 -22 6 -22 14
0 12 6 13 33 4 17 -5 42 -11 54 -12 12 0 28 -7 35 -14 14 -14 38 -16 38 -3 0
5 -17 24 -37 41 l-38 31 38 -16 c21 -9 42 -13 47 -10 5 3 12 0 16 -6 5 -8 3
-9 -6 -4 -9 5 -11 4 -6 -4 4 -6 11 -9 16 -6 17 11 31 -22 20 -49 -5 -15 -10
-38 -10 -51 0 -39 27 -19 34 25 6 40 18 50 49 42 18 -5 22 -42 7 -77 -7 -16
-9 -13 -9 18 -1 20 -5 37 -11 37 -6 0 -10 -36 -10 -88 l0 -88 -55 -33 c-30
-18 -55 -37 -55 -40 0 -27 178 -141 278 -179 144 -55 205 -66 362 -66 107 0
162 4 210 17 287 77 512 252 633 492 38 77 87 223 87 262 0 39 -70 286 -79
278 -3 -3 -4 -70 -4 -148 l2 -142 -19 135 c-10 74 -19 138 -19 141 -1 3 15 27
34 52 19 25 35 51 35 56 0 20 -25 11 -45 -16 -11 -15 -69 -90 -129 -167 -60
-78 -119 -156 -130 -173 -12 -18 -27 -33 -34 -33 -8 0 0 17 19 43 19 23 91
115 161 204 71 88 128 169 128 178 0 25 -12 16 -62 -45 -40 -50 -51 -57 -114
-75 -106 -31 -104 -29 -104 -75 l0 -41 65 47 c36 25 68 44 71 42 2 -3 -24 -24
-59 -47 -58 -37 -127 -118 -127 -148 0 -6 -11 -15 -25 -21 -17 -8 -28 -24 -35
-55 -7 -26 -27 -59 -51 -85 l-41 -42 -104 0 -105 0 3 97 3 97 55 14 c30 7 58
19 62 25 4 7 5 53 2 102 l-6 90 -58 60 c-31 33 -65 80 -74 103 -32 84 -116
160 -238 217 -57 27 -144 32 -223 14z m48 -111 c-2 -40 -11 -167 -19 -282 -13
-191 -16 -213 -39 -252 -14 -24 -29 -45 -34 -48 -4 -3 -55 29 -111 72 -122 91
-139 118 -149 232 -4 43 -10 82 -14 86 -11 11 -8 -126 3 -168 16 -55 44 -83
214 -212 86 -65 159 -123 163 -129 4 -7 -9 0 -28 16 -18 15 -79 58 -134 96
-55 39 -126 93 -157 120 -65 59 -78 97 -78 226 l0 74 35 7 c26 5 37 13 41 30
8 32 -2 55 -26 61 -11 3 -20 9 -20 14 0 23 266 128 326 129 l31 0 -4 -72z
m329 -70 c-7 -7 -12 -41 -12 -83 0 -83 -9 -99 -67 -119 l-43 -15 0 88 c0 100
11 118 78 131 55 11 57 11 44 -2z m46 -394 c37 -32 37 -32 35 -107 -2 -118
-31 -178 -70 -146 -8 7 -32 43 -54 80 -21 37 -44 71 -49 74 -6 3 -10 11 -10
16 0 5 18 0 41 -11 23 -12 43 -19 45 -17 3 2 -21 27 -52 56 -56 51 -50 55 27
15 17 -8 33 -13 35 -11 5 5 -44 49 -86 80 -14 9 0 6 30 -9 30 -14 63 -33 73
-42 9 -8 20 -12 24 -9 10 10 -36 55 -84 84 -24 14 -43 27 -43 30 0 9 102 -52
138 -83z m257 -263 c77 -5 153 -14 168 -20 27 -11 27 -11 12 -41 -22 -42 -49
-53 -109 -46 l-51 6 33 -15 c24 -11 32 -20 32 -40 0 -23 -3 -25 -22 -20 -25 8
-25 8 -52 6 -16 -1 -16 -3 7 -21 14 -11 29 -20 34 -20 4 0 15 -4 23 -10 12 -7
12 -12 -4 -29 -14 -16 -23 -18 -37 -10 -24 12 -25 -7 -4 -35 13 -17 13 -22 -1
-37 -15 -17 -17 -17 -44 2 -15 11 -45 23 -66 26 -37 5 -41 2 -81 -44 l-42 -50
-138 -17 c-231 -28 -234 -27 -57 12 93 21 175 42 182 46 7 4 19 21 28 37 10
21 33 38 68 54 l53 24 -11 46 c-7 25 -16 46 -22 46 -5 1 -15 -17 -22 -40 l-14
-41 -78 0 c-69 0 -82 -3 -108 -24 l-29 -25 5 79 c5 83 -2 130 -18 130 -6 0
-10 -18 -10 -41 0 -46 -27 -112 -44 -106 -6 2 -11 28 -11 60 0 32 -2 57 -5 57
-19 -1 -32 -25 -43 -78 -7 -34 -20 -69 -28 -78 -15 -14 -17 -11 -24 38 l-8 53
-9 -60 c-15 -102 -13 -99 -70 -119 -29 -10 -66 -19 -82 -20 -28 -1 -31 3 -61
90 -18 50 -44 113 -59 139 -14 26 -24 50 -22 53 3 2 31 0 63 -6 48 -8 69 -7
118 8 33 10 99 21 146 24 47 3 105 13 129 21 23 8 63 15 89 15 25 1 60 7 76
15 37 17 46 17 220 6z"/>
<path d="M1622 1479 c3 -20 16 -27 108 -53 112 -31 116 -33 108 -42 -3 -3 -50
8 -104 25 -54 17 -99 29 -101 27 -2 -2 8 -29 24 -60 l27 -56 93 0 c97 0 124
13 51 25 -86 13 -159 28 -155 31 2 3 48 -2 101 -9 53 -7 99 -10 102 -5 3 4 -2
8 -10 8 -9 0 -16 5 -16 11 0 6 9 8 21 4 49 -16 5 13 -59 39 -57 23 -69 32 -65
47 4 14 0 19 -16 19 -11 0 -21 -4 -21 -10 0 -5 -5 -10 -11 -10 -5 0 -8 4 -4 9
3 6 -3 9 -12 9 -10 -1 -28 2 -41 6 -21 7 -23 5 -20 -15z"/>
</g>
</svg>
